<svg xmlns="http://www.w3.org/2000/svg" width="89" height="58" viewBox="0 0 89 58">
  <defs>
    <style>
      .cls-1 {
        fill: #0090ff;
        fill-rule: evenodd;
      }
    </style>
  </defs>
  <path id="레저몰" class="cls-1" d="M7.83,38.623l5.61-.822a103.414,103.414,0,0,1,4.739-15.247L7.939,25.325q-1.052,2.288-1.98,4.622l5.48-1.244Q10.554,31.126,9.8,33.586L4.272,34.612A96.836,96.836,0,0,0,.509,49.55l2.309-.165a51.012,51.012,0,0,0,11.255-1.777q0.106-2.749.366-5.465a44.03,44.03,0,0,1-7.8,1.71q0.524-2.629,1.188-5.23h0Zm10.846-7.759-2.532.492q-0.772,2.669-1.4,5.37l2.572-.394a106.246,106.246,0,0,0-2.436,19.515L20,55.7a109.266,109.266,0,0,1,7.458-38.426l-4.581,1.359A105.9,105.9,0,0,0,18.675,30.864ZM28.983,16.3a110.17,110.17,0,0,0-7.53,41.191l5.3-.1a113.46,113.46,0,0,1,6.931-42.506l-4.7,1.418h0Zm22.349,3.5q0.642-3.312,1.462-6.607L36.43,17.615q-0.914,2.947-1.667,5.923l5.7-1.288C38.415,30.622,35.9,39.6,30.194,43.665q1.324,2.79,2.858,5.685c3.618-2.671,5.911-7.443,7.736-13.279,0.766,5.14,2.946,9.281,6.5,11.508q1.477-3.336,3.063-6.782C44.9,37.52,43.841,29.335,45.6,21.089l5.732-1.3h0Zm5.212-11.86a130.976,130.976,0,0,0-3.5,16.706l-4.562.874q-0.514,3.285-.854,6.578l4.635-.7a128.668,128.668,0,0,0,.27,25.649l5.612-.1A133.155,133.155,0,0,1,61.52,6.43l-4.975,1.5h0ZM70.117,47.812l16.714-.95a150.7,150.7,0,0,1-1.216-15.731L64.252,33.856q-0.081,3.291,0,6.57L80.68,38.885q0.054,0.868.118,1.735L64.363,42.03a135.951,135.951,0,0,0,1.283,14.437L89.111,56q-0.7-3.6-1.234-7.235L70.3,49.619Q70.2,48.716,70.117,47.812Zm1.478-36.377,10.08-2.513q-0.235,1.671-.433,3.342L71.107,14.6q0.226-1.582.488-3.164h0Zm6.249,11.349q0.074-1.316.171-2.633l7.577-1.439A154.935,154.935,0,0,1,87.8.08L68.042,5.856a139.894,139.894,0,0,0-2.8,16.72l7.64-1.451q-0.111,1.283-.2,2.565l-10.93,1.921q-0.331,3.439-.487,6.876l27.552-3.777q-0.073-3.921.054-7.865Z"/>
</svg>
